<svg width="25" height="24" viewBox="0 0 25 24" fill="none" xmlns="http://www.w3.org/2000/svg">
<g clip-path="url(#clip0_3655_1759)">
<path d="M12.25 2L6.75 11H17.75L12.25 2ZM12.25 5.84L14.18 9H10.31L12.25 5.84ZM17.75 13C15.26 13 13.25 15.01 13.25 17.5C13.25 19.99 15.26 22 17.75 22C20.24 22 22.25 19.99 22.25 17.5C22.25 15.01 20.24 13 17.75 13ZM17.75 20C16.37 20 15.25 18.88 15.25 17.5C15.25 16.12 16.37 15 17.75 15C19.13 15 20.25 16.12 20.25 17.5C20.25 18.88 19.13 20 17.75 20ZM3.25 21.5H11.25V13.5H3.25V21.5ZM5.25 15.5H9.25V19.5H5.25V15.5Z" fill="black" fill-opacity="0.25"/>
</g>
<defs>
<clipPath id="clip0_3655_1759">
<rect width="24" height="24" fill="white" transform="translate(0.25)"/>
</clipPath>
</defs>
</svg>
