<svg width="25" height="24" viewBox="0 0 25 24" fill="none" xmlns="http://www.w3.org/2000/svg">
<g clip-path="url(#clip0_3655_1783)">
<path d="M16.3 13C17.05 13 17.71 12.59 18.05 11.97L21.63 5.48C22 4.82 21.52 4 20.76 4H5.96L5.02 2H1.75V4H3.75L7.35 11.59L6 14.03C5.27 15.37 6.23 17 7.75 17H19.75V15H7.75L8.85 13H16.3ZM6.91 6H19.06L16.3 11H9.28L6.91 6ZM7.75 18C6.65 18 5.76 18.9 5.76 20C5.76 21.1 6.65 22 7.75 22C8.85 22 9.75 21.1 9.75 20C9.75 18.9 8.85 18 7.75 18ZM17.75 18C16.65 18 15.76 18.9 15.76 20C15.76 21.1 16.65 22 17.75 22C18.85 22 19.75 21.1 19.75 20C19.75 18.9 18.85 18 17.75 18Z" fill="black" />
</g>
<defs>
<clipPath id="clip0_3655_1783">
<rect width="24" height="24" fill="white" transform="translate(0.75)"/>
</clipPath>
</defs>
</svg>
